<?xml version="1.0" encoding="utf-8"?>
<!-- Generator: Adobe Illustrator 26.0.1, SVG Export Plug-In . SVG Version: 6.00 Build 0)  -->
<svg version="1.1" id="Layer_1" xmlns="http://www.w3.org/2000/svg" xmlns:xlink="http://www.w3.org/1999/xlink" x="0px" y="0px"
	 viewBox="0 0 150.16 150.16" style="enable-background:new 0 0 150.16 150.16;" xml:space="preserve">
<style type="text/css">
	.st0{fill:url(#SVGID_1_);}
	.st1{fill:url(#SVGID_00000134932122580592821540000003515503963047028397_);}
	.st2{fill:url(#SVGID_00000165919557182575628210000018021894847925205400_);}
	.st3{opacity:0.2;}
	.st4{fill:#F27123;}
	.st5{fill:#9A9C9F;}
</style>
<g>
	<g>
		<g>
			<g>
				
					<linearGradient id="SVGID_1_" gradientUnits="userSpaceOnUse" x1="31.1632" y1="567.2304" x2="116.1834" y2="656.8326" gradientTransform="matrix(1 0 0 1 0.0186 -538.4144)">
					<stop  offset="0" style="stop-color:#666666"/>
					<stop  offset="1" style="stop-color:#333333"/>
				</linearGradient>
				<circle class="st0" cx="75.08" cy="75.08" r="75.08"/>
				
					<linearGradient id="SVGID_00000093148057418541018360000009057453745616399232_" gradientUnits="userSpaceOnUse" x1="81.5519" y1="620.8536" x2="44.9954" y2="579.4041" gradientTransform="matrix(1 0 0 1 0.0186 -538.4144)">
					<stop  offset="0" style="stop-color:#666666"/>
					<stop  offset="1" style="stop-color:#333333"/>
				</linearGradient>
				<circle style="fill:url(#SVGID_00000093148057418541018360000009057453745616399232_);" cx="75.08" cy="75.08" r="59.31"/>
				
					<linearGradient id="SVGID_00000183251436231117758550000007013501676042055857_" gradientUnits="userSpaceOnUse" x1="38.5575" y1="575.7492" x2="112.3068" y2="651.945" gradientTransform="matrix(1 0 0 1 0 -538.4233)">
					<stop  offset="0" style="stop-color:#666666"/>
					<stop  offset="1" style="stop-color:#333333"/>
				</linearGradient>
				<circle style="fill:url(#SVGID_00000183251436231117758550000007013501676042055857_);" cx="75.08" cy="75.06" r="52.72"/>
			</g>
		</g>
	</g>
	<g class="st3">
		<path d="M76.3,39.44c11.19,0,21.23,5.01,28,12.91H83.28h-3.58H78.5v16.01c-2.58-3.9-7-6.47-12.02-6.47
			c-7.96,0-14.4,6.45-14.4,14.4c0,7.96,6.45,14.4,14.4,14.4c5.02,0,9.44-2.57,12.02-6.47v4.13v2.79c0,5.31-6.71,9.63-12.02,9.63
			c-5.31,0-9.63-4.32-9.63-9.63l-4.77,0c0,7.96,6.45,14.4,14.4,14.4c7.96,0,16.79-6.45,16.79-14.4l0-34.02h29.97
			c-6.95-13.33-20.9-22.46-36.95-22.46c-16.05,0-30,9.12-36.95,22.46h5.48C51.31,46.53,62.99,39.44,76.3,39.44z M66.49,85.93
			c-5.31,0-9.63-4.32-9.63-9.63c0-5.31,4.32-9.63,9.63-9.63c5.31,0,9.63,4.32,9.63,9.63C76.12,81.61,71.8,85.93,66.49,85.93z"/>
		<path d="M76.3,113.16c-13.31,0-24.99-7.09-31.47-17.68h-5.48c6.95,13.33,20.9,22.46,36.95,22.46c16.05,0,30-9.12,36.95-22.46
			h-5.48C101.29,106.08,89.61,113.16,76.3,113.16z"/>
		<polygon points="99.54,90.71 99.54,66.67 105.69,66.67 105.69,61.9 88.05,61.9 88.05,66.67 94.2,66.67 94.2,90.71 		"/>
		<polygon points="126.12,66.67 126.12,61.89 110.46,61.89 110.46,90.7 126.12,90.7 126.12,85.93 115.23,85.93 115.23,78.56 
			122.64,78.56 122.64,73.79 115.23,73.79 115.23,66.67 		"/>
		<polygon points="42.58,90.71 47.35,90.71 47.35,61.9 42.58,61.9 42.58,81.28 31.26,61.9 26.48,61.9 26.48,90.71 31.26,90.71 
			31.26,71.36 42.57,90.71 		"/>
	</g>
	<g>
		<g>
			<path class="st4" d="M75.08,38.22c11.19,0,21.23,5.01,28,12.91H82.05h-3.58h-1.19v36v2.79c0,5.31-6.71,9.63-12.02,9.63
				c-5.31,0-9.63-4.32-9.63-9.63l-4.77,0c0,7.96,6.45,14.4,14.4,14.4c7.96,0,16.79-6.45,16.79-14.4l0-34.02h29.97
				c-6.95-13.33-20.9-22.46-36.95-22.46c-16.05,0-30,9.12-36.95,22.46h5.48C50.09,45.31,61.77,38.22,75.08,38.22z"/>
			<path class="st4" d="M106.55,94.26c-6.48,10.6-18.16,17.68-31.47,17.68c-13.31,0-24.99-7.09-31.47-17.68h-5.48
				c6.95,13.33,20.9,22.46,36.95,22.46c16.05,0,30-9.12,36.95-22.46H106.55z"/>
		</g>
		<g>
			<polygon class="st5" points="98.32,89.48 98.32,65.45 104.47,65.45 104.47,60.68 86.83,60.68 86.83,65.45 92.98,65.45 
				92.98,89.48 			"/>
			<polygon class="st5" points="124.9,84.71 114.01,84.71 114.01,77.34 121.42,77.34 121.42,72.57 114.01,72.57 114.01,65.45 
				124.9,65.45 124.9,60.67 109.24,60.67 109.24,89.48 124.9,89.48 			"/>
		</g>
		<path class="st4" d="M65.26,60.67c-7.96,0-14.4,6.45-14.4,14.4c0,7.96,6.45,14.4,14.4,14.4c7.96,0,14.4-6.45,14.4-14.4
			C79.67,67.12,73.22,60.67,65.26,60.67z M65.26,84.71c-5.31,0-9.63-4.32-9.63-9.63c0-5.31,4.32-9.63,9.63-9.63
			c5.31,0,9.63,4.32,9.63,9.63C74.9,80.39,70.57,84.71,65.26,84.71z"/>
		<polygon class="st5" points="41.36,89.48 46.13,89.48 46.13,60.68 41.36,60.68 41.36,80.06 30.04,60.68 25.26,60.68 25.26,89.48 
			30.04,89.48 30.04,70.14 41.34,89.49 		"/>
	</g>
</g>
</svg>
