<?xml version="1.0" encoding="UTF-8" standalone="no"?>
<!-- Generator: Adobe Illustrator 26.0.1, SVG Export Plug-In . SVG Version: 6.00 Build 0)  -->

<svg
   xmlns:dc="http://purl.org/dc/elements/1.1/"
   xmlns:cc="http://creativecommons.org/ns#"
   xmlns:rdf="http://www.w3.org/1999/02/22-rdf-syntax-ns#"
   xmlns:svg="http://www.w3.org/2000/svg"
   xmlns="http://www.w3.org/2000/svg"
   xmlns:sodipodi="http://sodipodi.sourceforge.net/DTD/sodipodi-0.dtd"
   xmlns:inkscape="http://www.inkscape.org/namespaces/inkscape"
   version="1.1"
   id="Layer_1"
   x="0px"
   y="0px"
   viewBox="0 0 150.16 150.16"
   style="enable-background:new 0 0 150.16 150.16;"
   xml:space="preserve"
   sodipodi:docname="old-gnote.svg"
   inkscape:version="0.92.5 (2060ec1f9f, 2020-04-08)"><metadata
   id="metadata68"><rdf:RDF><cc:Work
       rdf:about=""><dc:format>image/svg+xml</dc:format><dc:type
         rdf:resource="http://purl.org/dc/dcmitype/StillImage" /><dc:title></dc:title></cc:Work></rdf:RDF></metadata><defs
   id="defs66" /><sodipodi:namedview
   pagecolor="#ffffff"
   bordercolor="#666666"
   borderopacity="1"
   objecttolerance="10"
   gridtolerance="10"
   guidetolerance="10"
   inkscape:pageopacity="0"
   inkscape:pageshadow="2"
   inkscape:window-width="1573"
   inkscape:window-height="947"
   id="namedview64"
   showgrid="false"
   inkscape:zoom="1.5716569"
   inkscape:cx="75.080002"
   inkscape:cy="75.080002"
   inkscape:window-x="890"
   inkscape:window-y="347"
   inkscape:window-maximized="0"
   inkscape:current-layer="Layer_1" />
<style
   type="text/css"
   id="style2">
	.st0{fill:url(#SVGID_1_);}
	.st1{fill:url(#SVGID_00000134932122580592821540000003515503963047028397_);}
	.st2{fill:url(#SVGID_00000165919557182575628210000018021894847925205400_);}
	.st3{opacity:0.2;}
	.st4{fill:#F27123;}
	.st5{fill:#9A9C9F;}
</style>
<g
   id="g61">
	<g
   id="g29">
		<g
   id="g27">
			<g
   id="g25">
				
					<linearGradient
   id="SVGID_1_"
   gradientUnits="userSpaceOnUse"
   x1="31.1632"
   y1="567.23041"
   x2="116.1834"
   y2="656.83258"
   gradientTransform="translate(0.0186,-538.4144)">
					<stop
   offset="0"
   style="stop-color:#666666"
   id="stop4" />
					<stop
   offset="1"
   style="stop-color:#333333"
   id="stop6" />
				</linearGradient>
				<circle
   class="st0"
   cx="75.080002"
   cy="75.080002"
   r="75.080002"
   id="circle9"
   style="fill:url(#SVGID_1_)" />
				
					<linearGradient
   id="SVGID_00000093148057418541018360000009057453745616399232_"
   gradientUnits="userSpaceOnUse"
   x1="81.551903"
   y1="620.85358"
   x2="44.995399"
   y2="579.40411"
   gradientTransform="translate(0.0186,-538.4144)">
					<stop
   offset="0"
   style="stop-color:#666666"
   id="stop11" />
					<stop
   offset="1"
   style="stop-color:#333333"
   id="stop13" />
				</linearGradient>
				<circle
   style="fill:url(#SVGID_00000093148057418541018360000009057453745616399232_)"
   cx="75.080002"
   cy="75.080002"
   r="59.310001"
   id="circle16" />
				
					<linearGradient
   id="SVGID_00000183251436231117758550000007013501676042055857_"
   gradientUnits="userSpaceOnUse"
   x1="38.557499"
   y1="575.74921"
   x2="112.3068"
   y2="651.94501"
   gradientTransform="translate(0,-538.4233)">
					<stop
   offset="0"
   style="stop-color:#666666"
   id="stop18" />
					<stop
   offset="1"
   style="stop-color:#333333"
   id="stop20" />
				</linearGradient>
				<circle
   style="fill:url(#SVGID_00000183251436231117758550000007013501676042055857_)"
   cx="75.080002"
   cy="75.059998"
   r="52.720001"
   id="circle23" />
			</g>
		</g>
	</g>
	<g
   class="st3"
   id="g41"
   style="opacity:0.2">
		<path
   d="m 76.3,39.44 c 11.19,0 21.23,5.01 28,12.91 H 83.28 79.7 78.5 v 16.01 c -2.58,-3.9 -7,-6.47 -12.02,-6.47 -7.96,0 -14.4,6.45 -14.4,14.4 0,7.96 6.45,14.4 14.4,14.4 5.02,0 9.44,-2.57 12.02,-6.47 v 4.13 2.79 c 0,5.31 -6.71,9.63 -12.02,9.63 -5.31,0 -9.63,-4.32 -9.63,-9.63 h -4.77 c 0,7.96 6.45,14.4 14.4,14.4 7.96,0 16.79,-6.45 16.79,-14.4 V 57.12 h 29.97 C 106.29,43.79 92.34,34.66 76.29,34.66 c -16.05,0 -30,9.12 -36.95,22.46 h 5.48 C 51.31,46.53 62.99,39.44 76.3,39.44 Z m -9.81,46.49 c -5.31,0 -9.63,-4.32 -9.63,-9.63 0,-5.31 4.32,-9.63 9.63,-9.63 5.31,0 9.63,4.32 9.63,9.63 0,5.31 -4.32,9.63 -9.63,9.63 z"
   id="path31"
   inkscape:connector-curvature="0" />
		<path
   d="m 76.3,113.16 c -13.31,0 -24.99,-7.09 -31.47,-17.68 h -5.48 c 6.95,13.33 20.9,22.46 36.95,22.46 16.05,0 30,-9.12 36.95,-22.46 h -5.48 c -6.48,10.6 -18.16,17.68 -31.47,17.68 z"
   id="path33"
   inkscape:connector-curvature="0" />
		<polygon
   points="105.69,66.67 105.69,61.9 88.05,61.9 88.05,66.67 94.2,66.67 94.2,90.71 99.54,90.71 99.54,66.67 "
   id="polygon35" />
		<polygon
   points="110.46,61.89 110.46,90.7 126.12,90.7 126.12,85.93 115.23,85.93 115.23,78.56 122.64,78.56 122.64,73.79 115.23,73.79 115.23,66.67 126.12,66.67 126.12,61.89 "
   id="polygon37" />
		<polygon
   points="47.35,61.9 42.58,61.9 42.58,81.28 31.26,61.9 26.48,61.9 26.48,90.71 31.26,90.71 31.26,71.36 42.57,90.71 42.58,90.71 47.35,90.71 "
   id="polygon39" />
	</g>
	<g
   id="g59">
		<g
   id="g47">
			<path
   class="st4"
   d="m 75.08,38.22 c 11.19,0 21.23,5.01 28,12.91 H 82.05 78.47 77.28 v 36 2.79 c 0,5.31 -6.71,9.63 -12.02,9.63 -5.31,0 -9.63,-4.32 -9.63,-9.63 h -4.77 c 0,7.96 6.45,14.4 14.4,14.4 7.96,0 16.79,-6.45 16.79,-14.4 V 55.9 h 29.97 C 105.07,42.57 91.12,33.44 75.07,33.44 c -16.05,0 -30,9.12 -36.95,22.46 H 43.6 C 50.09,45.31 61.77,38.22 75.08,38.22 Z"
   id="path43"
   inkscape:connector-curvature="0"
   style="fill:#f27123" />
			<path
   class="st4"
   d="m 106.55,94.26 c -6.48,10.6 -18.16,17.68 -31.47,17.68 -13.31,0 -24.99,-7.09 -31.47,-17.68 h -5.48 c 6.95,13.33 20.9,22.46 36.95,22.46 16.05,0 30,-9.12 36.95,-22.46 z"
   id="path45"
   inkscape:connector-curvature="0"
   style="fill:#f27123" />
		</g>
		<g
   id="g53">
			<polygon
   class="st5"
   points="104.47,60.68 86.83,60.68 86.83,65.45 92.98,65.45 92.98,89.48 98.32,89.48 98.32,65.45 104.47,65.45 "
   id="polygon49"
   style="fill:#9a9c9f" />
			<polygon
   class="st5"
   points="121.42,77.34 121.42,72.57 114.01,72.57 114.01,65.45 124.9,65.45 124.9,60.67 109.24,60.67 109.24,89.48 124.9,89.48 124.9,84.71 114.01,84.71 114.01,77.34 "
   id="polygon51"
   style="fill:#9a9c9f" />
		</g>
		<path
   class="st4"
   d="m 65.26,60.67 c -7.96,0 -14.4,6.45 -14.4,14.4 0,7.96 6.45,14.4 14.4,14.4 7.96,0 14.4,-6.45 14.4,-14.4 0.01,-7.95 -6.44,-14.4 -14.4,-14.4 z m 0,24.04 c -5.31,0 -9.63,-4.32 -9.63,-9.63 0,-5.31 4.32,-9.63 9.63,-9.63 5.31,0 9.63,4.32 9.63,9.63 0.01,5.31 -4.32,9.63 -9.63,9.63 z"
   id="path55"
   inkscape:connector-curvature="0"
   style="fill:#f27123" />
		<polygon
   class="st5"
   points="46.13,60.68 41.36,60.68 41.36,80.06 30.04,60.68 25.26,60.68 25.26,89.48 30.04,89.48 30.04,70.14 41.34,89.49 41.36,89.48 46.13,89.48 "
   id="polygon57"
   style="fill:#9a9c9f" />
	</g>
</g>
<path
   style="opacity:0.698;fill:#ffffff;fill-opacity:1;stroke:none;stroke-opacity:0.78095242;paint-order:normal"
   id="path883"
   sodipodi:type="arc"
   sodipodi:cx="75.39814"
   sodipodi:cy="75.080002"
   sodipodi:rx="75.39814"
   sodipodi:ry="75.080002"
   sodipodi:start="0.00013797578"
   sodipodi:end="6.2828886"
   sodipodi:open="true"
   d="M 150.79628,75.090361 A 75.39814,75.080002 0 0 1 75.39593,150.16 75.39814,75.080002 0 0 1 2.3746321e-7,75.085961 75.39814,75.080002 0 0 1 75.383962,1.3273282e-6 75.39814,75.080002 0 0 1 150.79628,75.057725" /></svg>