<?xml version="1.0" encoding="UTF-8" standalone="no"?>
<!-- Generator: Adobe Illustrator 23.0.2, SVG Export Plug-In . SVG Version: 6.00 Build 0)  -->

<svg
   xmlns:dc="http://purl.org/dc/elements/1.1/"
   xmlns:cc="http://creativecommons.org/ns#"
   xmlns:rdf="http://www.w3.org/1999/02/22-rdf-syntax-ns#"
   xmlns:svg="http://www.w3.org/2000/svg"
   xmlns="http://www.w3.org/2000/svg"
   xmlns:sodipodi="http://sodipodi.sourceforge.net/DTD/sodipodi-0.dtd"
   xmlns:inkscape="http://www.inkscape.org/namespaces/inkscape"
   version="1.1"
   id="Layer_3"
   x="0px"
   y="0px"
   viewBox="0 0 22.962214 22.996673"
   xml:space="preserve"
   sodipodi:docname="tfuel-wrapped.svg"
   inkscape:version="0.92.5 (2060ec1f9f, 2020-04-08)"
   width="22.962214"
   height="22.996674"><metadata
   id="metadata4972"><rdf:RDF><cc:Work
       rdf:about=""><dc:format>image/svg+xml</dc:format><dc:type
         rdf:resource="http://purl.org/dc/dcmitype/StillImage" /><dc:title></dc:title></cc:Work></rdf:RDF></metadata><defs
   id="defs4970" /><sodipodi:namedview
   pagecolor="#ffffff"
   bordercolor="#666666"
   borderopacity="1"
   objecttolerance="10"
   gridtolerance="10"
   guidetolerance="10"
   inkscape:pageopacity="0"
   inkscape:pageshadow="2"
   inkscape:window-width="1684"
   inkscape:window-height="1376"
   id="namedview4968"
   showgrid="false"
   inkscape:zoom="29.219408"
   inkscape:cx="15.41144"
   inkscape:cy="16.218382"
   inkscape:window-x="72"
   inkscape:window-y="27"
   inkscape:window-maximized="0"
   inkscape:current-layer="Layer_3"
   fit-margin-top="0"
   fit-margin-left="0"
   fit-margin-right="0"
   fit-margin-bottom="0" />
<style
   type="text/css"
   id="style4936">
	.st0{fill:url(#SVGID_1_);}
	.st1{fill:url(#SVGID_2_);}
	.st2{fill:url(#SVGID_3_);}
	.st3{fill:#F05824;}
	.st4{fill:#FFFFFF;}
</style>
<linearGradient
   id="SVGID_1_"
   gradientUnits="userSpaceOnUse"
   x1="5.1251998"
   y1="4.6847"
   x2="18.1486"
   y2="18.4083"
   gradientTransform="translate(-0.42866876,-0.30887868)">
	<stop
   offset="0"
   style="stop-color:#FAAC1B"
   id="stop4938" />
	<stop
   offset="1"
   style="stop-color:#F05824"
   id="stop4940" />
</linearGradient>
<circle
   class="st0"
   cx="11.471331"
   cy="11.491121"
   r="11.5"
   id="circle4943"
   style="fill:url(#SVGID_1_)" />
<linearGradient
   id="SVGID_2_"
   gradientUnits="userSpaceOnUse"
   x1="12.3353"
   y1="13.3877"
   x2="6.7855"
   y2="7.0978999"
   gradientTransform="translate(-0.42866876,-0.30887868)">
	<stop
   offset="0"
   style="stop-color:#FAAC1B"
   id="stop4945" />
	<stop
   offset="1"
   style="stop-color:#F05824"
   id="stop4947" />
</linearGradient>
<circle
   class="st1"
   cx="10.971331"
   cy="11.991121"
   r="9"
   id="circle4950"
   style="fill:url(#SVGID_2_)" />
<linearGradient
   id="SVGID_3_"
   gradientUnits="userSpaceOnUse"
   x1="5.8088002"
   y1="6.5465999"
   x2="16.999599"
   y2="18.1073"
   gradientTransform="translate(-0.42866876,-0.30887868)">
	<stop
   offset="0"
   style="stop-color:#FAAC1B"
   id="stop4952" />
	<stop
   offset="1"
   style="stop-color:#F05824"
   id="stop4954" />
</linearGradient>
<circle
   class="st2"
   cx="10.971331"
   cy="11.991121"
   r="8"
   id="circle4957"
   style="fill:url(#SVGID_3_)" />
<path
   class="st3"
   d="m 15.271331,3.4911213 c 0,0 0.6,0.7 0.8,1.4 0.1,0.5 0.1,1 -0.3,1.4 -0.2,0.2 -0.5,0.4 -0.5,0.6 0,0 -0.8,-0.3 -0.9,-1.3 -0.1,-1 0.8,-1 0.9,-2.1 z"
   id="path4959"
   inkscape:connector-curvature="0"
   style="fill:#f05824" />
<path
   class="st3"
   d="m 15.371331,7.5911213 c 0,0 0,0 0,0 0,0.6 -0.2,1.3 -1.1,1.5 -0.4,0.1 -0.9,0 -1.2,-0.3 -0.1,-0.1 -0.2,-0.3 -0.3,-0.5 -0.1,-0.2 -0.1,-0.6 0.1,-1.1 1.4,-3.8 -2.2,-5.7 -2.2,-5.7 0.5,2.8 -0.7999998,3.5 -1.8999998,4.7 -1.1,1.2 -2.9,2.4 -2.9,5.5999997 0,4.6 5.8999998,5.9 5.8999998,5.9 0.6,-1.3 1.6,-1.6 2.3,-1.9 0.9,-0.4 1.9,-1 2.4,-1.8 1.9,-3.1 -1.1,-6.3999997 -1.1,-6.3999997 z m -0.4,4.3999997 h -2 v 2 h -2 v -2 H 8.9713312 V 9.9911213 h 5.9999998 z"
   id="path4961"
   inkscape:connector-curvature="0"
   style="fill:#f05824" />
<path
   class="st4"
   d="m 14.871331,3.1911213 c 0,0 0.6,0.7 0.8,1.4 0.1,0.5 0.1,1 -0.3,1.4 -0.2,0.2 -0.5,0.4 -0.5,0.6 0,0 -0.8,-0.3 -0.9,-1.3 -0.1,-1 0.9,-1 0.9,-2.1 z"
   id="path4963"
   inkscape:connector-curvature="0"
   style="fill:#ffffff" />
<path
   class="st4"
   d="m 15.071331,7.2911213 c 0,0 0,0 0,0 0,0.6 -0.2,1.3 -1.1,1.5 -0.4,0.1 -0.9,0 -1.2,-0.3 -0.1,-0.1 -0.2,-0.3 -0.3,-0.5 -0.1,-0.2 -0.1,-0.6 0.1,-1.1 1.4,-3.8 -2.2,-5.7 -2.2,-5.7 0.5,2.8 -0.7999998,3.5 -1.8999998,4.7 -1.1,1.2 -2.9,2.3 -2.9,5.5999997 0,4.6 5.8999998,5.9 5.8999998,5.9 0.6,-1.3 1.6,-1.6 2.3,-1.9 0.9,-0.4 1.9,-1 2.4,-1.8 1.8,-3.1 -1.1,-6.3999997 -1.1,-6.3999997 z m -1.1,4.6999997 h -2 v 2 H 9.9713312 v -2 h -2 V 9.9911213 h 5.9999998 z"
   id="path4965"
   inkscape:connector-curvature="0"
   style="fill:#ffffff" />
<ellipse
   style="opacity:1;fill:none;fill-opacity:0.16190479;stroke:#000000;stroke-width:0.95999998;stroke-linecap:butt;stroke-linejoin:bevel;stroke-miterlimit:4;stroke-dasharray:0.95999998,0.95999998;stroke-dashoffset:0.41279999;stroke-opacity:0.78095242;paint-order:normal"
   id="path4999"
   ry="11.01814"
   rx="11.001027"
   cy="11.498332"
   cx="11.481224" /></svg>